<?xml version="1.0" standalone="no"?>
<!DOCTYPE svg PUBLIC "-//W3C//DTD SVG 20010904//EN"
 "http://www.w3.org/TR/2001/REC-SVG-20010904/DTD/svg10.dtd">
<svg version="1.0" xmlns="http://www.w3.org/2000/svg"
 width="32.000000pt" height="32.000000pt" viewBox="0 0 32.000000 32.000000"
 preserveAspectRatio="xMidYMid meet">

<g transform="translate(0.000000,32.000000) scale(0.100000,-0.100000)"
fill="#000000" stroke="none">
<path d="M22 308 c3 -9 39 -14 119 -16 63 -2 116 -6 119 -9 3 -2 5 -55 5 -116
l0 -112 -100 0 -100 0 0 108 c0 59 -3 107 -7 107 -5 0 -8 -45 -8 -99 0 -56 -4
-103 -10 -106 -6 -4 -10 24 -10 78 0 93 -8 147 -21 147 -5 0 -9 -50 -9 -111 0
-108 1 -112 26 -132 24 -18 38 -20 128 -18 134 3 136 6 136 128 0 55 4 93 10
93 6 0 10 -42 10 -105 0 -85 -3 -107 -15 -111 -8 -4 -12 -10 -9 -16 3 -5 11
-4 20 3 11 9 14 39 14 123 -1 109 -1 112 -30 144 l-30 32 -121 0 c-92 0 -120
-3 -117 -12z"/>
</g>
</svg>
